<svg width="1440" height="105" viewBox="0 0 1440 105" fill="none" xmlns="http://www.w3.org/2000/svg">
<rect width="1440" height="0.990566" fill="white" fill-opacity="0.1"/>
<g clip-path="url(#clip0_1_544)">
<path d="M797.756 56.2984L802.399 58.4758C800.892 60.0372 797.288 62.716 791.058 62.716C783.321 62.716 777.559 58.5045 777.559 53.1469C777.559 47.4456 783.382 43.5779 790.406 43.5779C797.471 43.5779 800.933 47.5316 802.053 49.666L802.663 50.7547L784.461 56.0549C785.845 57.9744 788.004 58.9485 791.058 58.9485C794.112 58.9485 796.229 57.8885 797.756 56.2984ZM783.484 52.8461L795.639 49.2935C794.967 48.1046 792.972 47.2594 790.589 47.2594C787.556 47.2594 783.341 49.1503 783.484 52.8461Z" fill="white" fill-opacity="0.6"/>
<path d="M768.783 33.8226H774.647V61.8422H768.783V33.8226Z" fill="white" fill-opacity="0.6"/>
<path d="M759.539 44.3228H765.2V61.3408C765.2 68.403 759.275 71.311 752.271 71.311C745.674 71.311 741.703 68.1882 740.217 65.6526L745.409 64.1342C746.346 65.6956 748.606 67.5435 752.271 67.5435C756.77 67.5435 759.539 65.581 759.539 61.9138V60.5386H759.336C757.992 61.6846 755.426 62.716 752.169 62.716C745.368 62.716 739.138 58.5475 739.138 53.1756C739.138 47.7751 745.368 43.5636 752.169 43.5636C755.406 43.5636 757.992 44.5807 759.336 45.698H759.539V44.3228ZM759.947 53.1756C759.947 49.7949 756.75 47.3311 752.678 47.3311C748.565 47.3311 745.104 49.7949 745.104 53.1756C745.104 56.5133 748.565 58.9343 752.678 58.9343C756.75 58.9486 759.947 56.5133 759.947 53.1756Z" fill="white" fill-opacity="0.6"/>
<path d="M706.948 53.104C706.948 58.6191 700.839 62.6731 693.347 62.6731C685.854 62.6731 679.746 58.6048 679.746 53.104C679.746 47.5603 685.854 43.5206 693.347 43.5206C700.839 43.5206 706.948 47.5603 706.948 53.104ZM701.002 53.104C701.002 49.666 697.459 47.3024 693.347 47.3024C689.234 47.3024 685.691 49.666 685.691 53.104C685.691 56.5133 689.234 58.9056 693.347 58.9056C697.459 58.9056 701.002 56.5133 701.002 53.104Z" fill="white" fill-opacity="0.6"/>
<path d="M736.654 53.1469C736.654 58.662 730.546 62.716 723.053 62.716C715.56 62.716 709.452 58.662 709.452 53.1469C709.452 47.6032 715.56 43.5779 723.053 43.5779C730.546 43.5779 736.654 47.5889 736.654 53.1469ZM730.688 53.1469C730.688 49.709 727.145 47.3453 723.032 47.3453C718.92 47.3453 715.377 49.709 715.377 53.1469C715.377 56.5563 718.92 58.9485 723.032 58.9485C727.166 58.9485 730.688 56.5419 730.688 53.1469Z" fill="white" fill-opacity="0.6"/>
<path d="M657.39 58.5188C648.858 58.5188 642.18 53.677 642.18 47.6749C642.18 41.6727 648.858 36.8309 657.39 36.8309C661.991 36.8309 665.351 38.1058 667.835 39.7389L671.927 36.8595C668.466 34.5246 663.844 32.7483 657.39 32.7483C645.702 32.7483 635.868 39.4524 635.868 47.6749C635.868 55.8974 645.702 62.6015 657.39 62.6015C663.701 62.6015 668.466 61.1403 672.192 58.4186C676.02 55.7255 677.2 51.9437 677.2 48.8782C677.2 47.9184 677.038 46.93 676.854 46.1994H657.39V50.1817H671.255C670.848 52.6743 669.728 54.3789 668.079 55.5393C666.084 56.9574 662.928 58.5188 657.39 58.5188Z" fill="white" fill-opacity="0.6"/>
</g>
<g clip-path="url(#clip1_1_544)">
<path d="M1104.74 62.9884H1098.44V51.9879H1094.15V48.4064H1098.44V45.8578C1098.44 42.8378 1100.34 40.6719 1106.62 40.6719C1107.95 40.6719 1110.03 40.8595 1110.03 40.8595V44.1852H1107.84C1105.61 44.1852 1104.74 44.6609 1104.74 45.976V48.4064H1109.95L1109.48 51.9879H1104.74L1104.74 62.9884ZM1119.19 48.1201C1119.1 48.1201 1119 48.1225 1118.91 48.1241C1113.07 48.1241 1110.4 51.202 1110.4 55.5711C1110.4 61.075 1113.86 63.2778 1118.96 63.2778C1121.87 63.2778 1123.78 62.4187 1124.95 60.8155V62.99H1130.94V48.4079H1124.95V50.6504C1124 49.2076 1122.03 48.1372 1119.19 48.1201ZM1120.71 51.5658C1123.17 51.5658 1124.64 52.7646 1124.64 54.8036L1124.65 56.8861C1124.65 58.2604 1123.43 59.8682 1120.71 59.8682C1116.54 59.8682 1116.65 56.7107 1116.65 55.659C1116.65 52.1215 1118.88 51.5658 1120.71 51.5658ZM1133.36 55.6997C1133.36 53.9277 1133.24 48.1296 1144.02 48.1296C1148.35 48.1296 1150.16 49.0938 1150.16 49.0938L1148.71 52.2502C1148.71 52.2502 1146.9 51.5539 1144.55 51.5539C1141.54 51.5539 1139.61 52.7773 1139.61 54.9299L1139.62 56.4734C1139.62 58.5418 1141.47 59.9225 1144.55 59.9225C1146.7 59.9225 1148.67 59.2196 1148.67 59.2196L1150.12 62.3102C1150.12 62.3102 1148.47 63.2804 1144.05 63.2804C1133.78 63.2804 1133.36 58.0784 1133.36 55.6997H1133.36ZM1185.29 48.1241C1191.13 48.1241 1193.85 51.202 1193.85 55.5711C1193.85 61.075 1190.38 63.2778 1185.29 63.2778C1182.37 63.2778 1180.22 62.4188 1179.05 60.8155V62.99L1173.14 62.9883V41.1153L1179.42 40.7315V50.4528C1180.33 48.7521 1183.31 48.1241 1185.29 48.1241H1185.29ZM1183.53 51.5658C1181.08 51.5658 1179.42 52.7646 1179.42 54.8036L1179.41 56.8861C1179.41 58.2604 1180.56 59.8682 1183.53 59.8682C1187.7 59.8682 1187.59 56.7107 1187.59 55.659C1187.59 52.1215 1185.37 51.5658 1183.53 51.5658ZM1161.06 48.1362C1154.43 48.1362 1150.93 50.6666 1150.93 55.1633V55.9988C1150.93 61.8352 1155.85 63.3378 1161.7 63.3378C1167.39 63.3378 1169.97 62.2226 1169.97 62.2226L1168.79 59.2527C1168.79 59.2527 1165.76 60.1559 1162.46 60.1559C1159.02 60.1559 1157.55 59.5434 1157.17 57.234H1170.47V54.8515C1170.47 49.9736 1166.55 48.1361 1161.06 48.1361L1161.06 48.1362ZM1161.22 51.1101C1163.51 51.1101 1165 52.0952 1164.91 54.3799H1157.18C1157.32 51.9753 1158.92 51.1102 1161.22 51.1102V51.1101ZM1206.37 48.1162C1199.57 48.1162 1195.99 50.8019 1195.99 55.615C1195.99 62.2188 1202.16 63.2818 1206.38 63.2818C1212.56 63.2818 1216.68 60.9505 1216.68 55.675C1216.68 50.1841 1212.05 48.1162 1206.37 48.1162ZM1206.28 51.5778C1209.28 51.5778 1210.46 53.1462 1210.46 54.9316V56.4665C1210.46 58.6293 1208.8 59.8802 1206.27 59.8802C1203.91 59.8802 1202.24 58.7101 1202.24 56.4665V54.9316C1202.24 52.5388 1204.22 51.5778 1206.28 51.5778ZM1229.19 48.1162C1222.39 48.1162 1218.8 50.8019 1218.8 55.615C1218.8 62.2188 1224.98 63.2818 1229.2 63.2818C1235.38 63.2818 1239.5 60.9505 1239.5 55.675C1239.5 50.1841 1234.87 48.1162 1229.19 48.1162ZM1229.1 51.5778C1232.1 51.5778 1233.28 53.1462 1233.28 54.9316V56.4665C1233.28 58.6293 1231.62 59.8802 1229.09 59.8802C1226.73 59.8802 1225.06 58.7101 1225.06 56.4665V54.9316C1225.06 52.5388 1227.04 51.5778 1229.1 51.5778ZM1241.87 62.9884V41.1153L1248.17 40.7315V55.3923L1254.42 48.4064H1261.07L1254.55 55.6417L1261.32 62.9884H1254.65L1248.17 55.8549V62.9884H1241.87Z" fill="white" fill-opacity="0.6"/>
</g>
<path d="M501.206 46.3438C501.206 42.9392 501.29 39.7694 501.541 36.8344L488.739 38.5367V39.3585L489.994 39.4759C490.915 39.5346 491.501 39.7694 491.835 40.1216C492.17 40.5325 492.421 41.1195 492.588 42C492.756 43.7023 492.923 47.5765 492.839 53.6813C492.839 59.7274 492.756 63.5429 492.588 65.0105C497.19 65.7149 500.788 66.0084 503.466 66.0084C508.486 66.0084 512.419 65.0105 515.263 62.9559C518.108 60.9601 519.614 58.1425 519.614 54.6792C519.614 51.9203 518.527 49.631 516.351 47.8113C514.176 45.9916 511.414 45.1111 508.151 45.1111C505.976 45.1111 503.717 45.522 501.206 46.3438ZM501.457 64.4234C501.29 62.545 501.123 56.9098 501.123 47.6939C501.876 47.5178 502.88 47.4004 504.135 47.4004C506.143 47.4004 507.733 48.1048 508.904 49.5723C510.076 51.0398 510.661 52.8008 510.661 55.0314C510.661 57.7903 509.992 60.0209 508.653 61.8993C507.315 63.719 505.641 64.6583 503.549 64.6583C502.88 64.5408 502.211 64.4821 501.457 64.4234ZM440.712 37.4214H407.243V38.5954L409 38.7128C410.339 38.8889 411.259 39.2411 411.845 39.7694C412.431 40.3564 412.765 41.2956 412.849 42.587C413.518 48.9266 413.518 54.8553 412.849 60.3144C412.682 61.6058 412.347 62.545 411.845 63.132C411.259 63.719 410.339 64.0712 409 64.1886L407.243 64.3647V65.5388H428.83V64.3647L426.571 64.2473C425.232 64.1299 424.312 63.719 423.726 63.1907C423.141 62.6037 422.806 61.6645 422.722 60.3731C422.471 58.0251 422.304 55.3249 422.304 52.3312L426.822 52.3899C429.249 52.4486 430.922 53.74 431.759 56.3228H433.432V46.7547H431.759C430.922 49.2788 429.332 50.5702 426.822 50.6289L422.304 50.6876C422.304 45.4046 422.471 41.6478 422.722 39.3585H429.332C434.018 39.3585 437.197 41.4717 439.038 45.6981L441.046 45.2872L440.712 37.4214ZM436.779 55.501C436.779 58.5534 438.034 61.0775 440.461 63.0733C442.887 65.0692 446.485 66.0084 451.003 66.0084C455.522 66.0084 459.203 65.0105 461.881 62.9559C464.558 60.9601 465.813 58.436 465.813 55.3836C465.813 52.3312 464.558 49.8071 462.132 47.8113C459.705 45.8155 456.107 44.8763 451.589 44.8763C447.071 44.8763 443.389 45.8742 440.712 47.9287C438.034 49.9245 436.779 52.4486 436.779 55.501ZM455.438 48.8092C456.442 50.5115 456.86 52.7421 456.86 55.4423C456.86 61.6645 455.02 64.7169 451.422 64.7169C449.581 64.7169 448.159 63.8364 447.154 62.0754C446.15 60.3144 445.732 58.0838 445.732 55.4423C445.732 49.2788 447.573 46.2264 451.171 46.2264C453.011 46.1677 454.434 47.0482 455.438 48.8092ZM526.141 63.0733C528.902 65.0105 532.416 66.0084 536.6 66.0084C539.194 66.0084 541.453 65.6562 543.461 64.8931C545.469 64.1886 547.059 63.3081 548.146 62.2515L547.31 61.5471C545.469 62.545 543.377 63.0146 540.951 63.0146C537.604 63.0146 535.01 62.2515 533.253 60.6666C531.412 59.0817 530.575 57.0859 530.743 54.5031H548.648C548.648 51.6855 547.644 49.3962 545.553 47.5765C543.461 45.8155 540.532 44.935 536.767 44.935C532.081 44.935 528.484 45.9916 525.89 48.0461C523.296 50.1006 522.041 52.6247 522.041 55.6184C522.041 58.6708 523.38 61.1362 526.141 63.0733ZM532.332 48.3396C533.253 46.9308 534.424 46.2264 536.014 46.2264C538.524 46.2264 539.779 48.457 539.779 52.9769L530.91 53.0943C530.994 51.3333 531.412 49.7484 532.332 48.3396ZM571.156 45.9916C568.897 45.2872 566.052 44.8763 562.622 44.8763C559.107 44.8763 556.346 45.522 554.254 46.7547C552.163 47.9874 551.075 49.5136 551.075 51.3333C551.075 52.9182 551.744 54.1509 552.999 55.0314C554.254 55.9119 556.263 56.675 558.856 57.3207C561.199 57.9077 562.873 58.4947 563.709 59.023C564.546 59.61 565.048 60.2557 565.048 61.1362C565.048 61.958 564.63 62.7211 563.709 63.3081C562.873 63.9538 561.701 64.2473 560.195 64.2473C556.514 64.2473 553.752 62.3689 551.828 58.6121L550.406 58.9056L550.74 64.7757C553.752 65.5975 557.099 66.0084 560.781 66.0084C564.63 66.0084 567.558 65.4214 569.734 64.1886C571.909 63.0146 572.997 61.3123 572.997 59.1991C572.997 57.7903 572.495 56.6163 571.407 55.7358C570.319 54.8553 568.562 54.0922 566.052 53.3878C563.291 52.6834 561.367 52.0377 560.362 51.4507C559.358 50.8637 558.856 50.1593 558.856 49.2788C558.856 48.3983 559.191 47.6939 559.944 47.1069C560.697 46.5199 561.618 46.2851 562.789 46.2851C566.136 46.2851 568.562 47.9874 570.068 51.3333L571.491 51.0398L571.156 45.9916ZM490.664 45.4633C489.492 45.0524 488.237 44.8763 486.815 44.8763C485.392 44.8763 483.97 45.2872 482.38 46.109C480.791 46.9308 479.619 48.0461 478.699 49.5723L478.782 44.8763L466.064 46.6373V47.4591L467.319 47.5178C468.909 47.6352 469.83 48.5157 469.997 50.1006C470.499 53.74 470.499 57.6142 469.997 61.7232C469.83 63.3081 468.909 64.1299 467.319 64.306L466.064 64.4234V65.5388H483.803V64.4234L481.544 64.306C479.954 64.1886 479.033 63.3081 478.866 61.7232C478.364 58.3186 478.28 54.6792 478.699 50.9224C479.201 50.3354 480.289 49.9832 481.962 49.8658C483.635 49.7484 485.56 50.1006 487.568 50.9224L490.664 45.4633Z" fill="white" fill-opacity="0.6"/>
<g clip-path="url(#clip2_1_544)">
<path d="M209.446 49.6089H195.372C195.009 49.6089 194.714 49.8212 194.714 50.0824V55.0336C194.714 55.2948 195.009 55.5073 195.372 55.5073H200.862V61.6587C200.862 61.6587 199.629 61.961 196.221 61.961C192.2 61.961 186.582 60.9039 186.582 52.0164C186.582 43.1269 192.432 41.9573 197.923 41.9573C202.676 41.9573 204.724 42.5595 206.027 42.8496C206.437 42.9399 206.815 42.6466 206.815 42.3851L208.385 37.6014C208.385 37.4792 208.328 37.3319 208.134 37.2317C207.605 36.9602 204.377 35.6604 196.221 35.6604C186.825 35.6604 177.188 38.5366 177.188 52.3629C177.188 66.1897 188.222 68.2501 197.52 68.2501C205.219 68.2501 209.89 65.8828 209.89 65.8828C210.082 65.8063 210.103 65.6128 210.103 65.524V50.0824C210.103 49.8212 209.809 49.6089 209.446 49.6089ZM281.939 37.3911C281.939 37.1276 281.649 36.9151 281.286 36.9151H273.361C272.999 36.9151 272.705 37.1276 272.705 37.3911C272.705 37.3923 272.707 48.4102 272.707 48.4102H260.355V37.3911C260.355 37.1276 260.063 36.9151 259.701 36.9151H251.777C251.416 36.9151 251.122 37.1276 251.122 37.3911V67.2276C251.122 67.4908 251.416 67.7051 251.777 67.7051H259.701C260.063 67.7051 260.355 67.4908 260.355 67.2276V54.4655H272.707C272.707 54.4655 272.686 67.2266 272.686 67.2276C272.686 67.4908 272.98 67.7051 273.342 67.7051H281.285C281.648 67.7051 281.939 67.4908 281.939 67.2276V37.3911ZM224.374 41.3801C224.374 39.327 222.086 37.6679 219.264 37.6679C216.444 37.6679 214.155 39.327 214.155 41.3801C214.155 43.431 216.444 45.0947 219.264 45.0947C222.086 45.0947 224.374 43.431 224.374 41.3801ZM223.745 60.9493V47.1767C223.745 46.9152 223.452 46.7014 223.09 46.7014H215.19C214.828 46.7014 214.504 46.9704 214.504 47.2319V66.9639C214.504 67.5438 215.006 67.7162 215.656 67.7162H222.773C223.554 67.7162 223.745 67.4404 223.745 66.9546V60.9493ZM312.227 46.7014H304.363C304.002 46.7014 303.709 46.9152 303.709 47.1784V61.8082C303.709 61.8082 301.711 62.8599 298.875 62.8599C296.04 62.8599 295.287 61.9342 295.287 59.9365V47.1784C295.287 46.9152 294.994 46.7014 294.633 46.7014H286.652C286.292 46.7014 285.997 46.9152 285.997 47.1784V60.9026C285.997 66.8361 290.593 68.2878 296.916 68.2878C302.103 68.2878 306.285 66.2259 306.285 66.2259C306.285 66.2259 306.484 67.3124 306.574 67.4414C306.665 67.5699 306.899 67.6996 307.153 67.6996L312.23 67.6835C312.59 67.6835 312.885 67.4692 312.885 67.2073L312.883 47.1784C312.883 46.9152 312.589 46.7014 312.227 46.7014ZM330.345 62.8712C327.618 62.8114 325.768 61.9209 325.768 61.9209V52.4723C325.768 52.4723 327.593 51.6673 329.832 51.5233C332.664 51.3409 335.393 51.9564 335.393 56.8169C335.393 61.9425 334.161 62.954 330.345 62.8712ZM333.447 46.0605C328.981 46.0605 325.943 47.4943 325.943 47.4943V37.3911C325.943 37.1276 325.65 36.9151 325.289 36.9151H317.342C316.98 36.9151 316.687 37.1276 316.687 37.3911V67.2276C316.687 67.4908 316.98 67.7051 317.343 67.7051H322.857C323.105 67.7051 323.293 67.613 323.432 67.4517C323.569 67.2913 323.766 66.0761 323.766 66.0761C323.766 66.0761 327.016 68.2918 333.168 68.2918C340.39 68.2918 344.531 65.656 344.531 56.4591C344.531 47.2622 337.917 46.0605 333.447 46.0605ZM246.553 46.6502H240.609C240.609 46.6502 240.6 41.001 240.6 40.9997C240.6 40.7859 240.447 40.679 240.103 40.679H232.002C231.687 40.679 231.518 40.7787 231.518 40.9965V46.8356C231.518 46.8356 227.459 47.5408 227.184 47.5977C226.911 47.6547 226.71 47.8361 226.71 48.0524V51.7218C226.71 51.9858 227.003 52.1985 227.365 52.1985H231.518V61.0258C231.518 67.5824 237.91 68.2265 242.223 68.2265C244.194 68.2265 246.552 67.7711 246.941 67.6677C247.176 67.6055 247.313 67.4301 247.313 67.2399L247.32 63.2034C247.32 62.9402 247.011 62.7271 246.663 62.7271C246.316 62.7271 245.43 62.8285 244.518 62.8285C241.598 62.8285 240.609 61.8516 240.609 60.5872C240.609 59.3237 240.608 52.1985 240.608 52.1985H246.553C246.916 52.1985 247.209 51.9858 247.209 51.7218V47.1257C247.209 46.8625 246.916 46.6502 246.553 46.6502Z" fill="white" fill-opacity="0.6"/>
</g>
<g clip-path="url(#clip3_1_544)">
<path d="M923.913 53.8861L922.915 55.8442H922.832C922.666 55.4027 922.361 54.7308 921.863 53.9245L916.515 44.6139H911.279V59.4532H914.742V50.2963C914.742 49.7204 914.742 49.0677 914.714 48.2614C914.687 47.8582 914.631 47.5511 914.604 47.3207H914.687C914.853 47.8966 915.047 48.319 915.185 48.5877L921.613 59.4148H924.051L930.424 48.4917C930.562 48.2422 930.701 47.7431 930.839 47.3207H930.922C930.839 48.415 930.784 49.394 930.756 49.9891V59.3957H934.441V44.5756H929.399L923.913 53.8861ZM937.932 48.7605H941.534V59.3957H937.932V48.7605ZM939.761 44.2684C939.151 44.2684 938.652 44.422 938.237 44.6907C937.821 44.9595 937.599 45.305 937.599 45.7274C937.599 46.1305 937.821 46.4761 938.237 46.7448C938.652 47.0136 939.151 47.148 939.761 47.148C940.37 47.148 940.896 46.9944 941.284 46.7448C941.7 46.4761 941.922 46.1305 941.922 45.7274C941.922 45.3242 941.7 44.9787 941.284 44.6907C940.924 44.422 940.398 44.2684 939.761 44.2684ZM954.306 48.6645C953.641 48.5685 952.949 48.5109 952.284 48.5109C950.649 48.5109 949.153 48.7605 947.906 49.2596C946.659 49.7587 945.662 50.4498 945.025 51.3137C944.36 52.1968 944.027 53.2142 944.027 54.3852C944.027 55.4027 944.36 56.3049 944.997 57.1304C945.634 57.9367 946.521 58.5894 947.712 59.0309C948.848 59.4724 950.178 59.7028 951.674 59.7028C953.392 59.7028 954.86 59.4532 956.024 58.9925L956.052 58.9733V56.6697L955.913 56.7465C955.387 57.0152 954.777 57.2456 954.168 57.38C953.53 57.5335 952.949 57.6103 952.45 57.6103C951.009 57.6103 949.873 57.3224 949.07 56.6889C948.239 56.0746 947.823 55.2299 947.823 54.1741C947.823 53.0798 948.239 52.216 949.097 51.5825C949.956 50.949 951.092 50.6226 952.478 50.6226C953.641 50.6226 954.833 50.8914 955.913 51.4289L956.052 51.5057V49.0677L956.024 49.0485C955.553 48.9141 955.027 48.7605 954.306 48.6645ZM966.192 48.5877C965.305 48.5877 964.474 48.7797 963.754 49.1828C963.144 49.5284 962.729 50.0275 962.369 50.6226H962.341V48.7605H958.739V59.3957H962.341V53.9629C962.341 53.0414 962.618 52.2736 963.227 51.7168C963.837 51.1409 964.613 50.853 965.555 50.853C965.887 50.853 966.22 50.9106 966.635 50.949C967.023 51.0258 967.3 51.1025 967.494 51.1985L967.633 51.2753V48.7797L967.55 48.7605C967.3 48.6453 966.802 48.5877 966.192 48.5877ZM976 48.5301C973.479 48.5301 971.456 49.0485 970.043 50.0659C968.602 51.0833 967.91 52.4847 967.91 54.2508C967.91 55.9018 968.63 57.2456 970.015 58.2246C971.401 59.1845 973.285 59.6836 975.64 59.6836C978.106 59.6836 980.073 59.1653 981.486 58.1286C982.926 57.092 983.619 55.7098 983.619 54.0013C983.619 52.312 982.954 50.9682 981.596 49.9891C980.294 49.0101 978.383 48.5301 976 48.5301ZM978.881 56.7081C978.216 57.3032 977.164 57.5911 975.861 57.5911C974.559 57.5911 973.506 57.3032 972.758 56.6697C972.01 56.0746 971.65 55.2107 971.65 54.1165C971.65 52.9838 972.038 52.12 972.758 51.5057C973.506 50.8914 974.531 50.5842 975.834 50.5842C977.108 50.5842 978.106 50.8722 978.826 51.4673C979.546 52.0624 979.934 52.9263 979.934 54.0589C979.879 55.2107 979.574 56.113 978.881 56.7081ZM991.654 53.1758C990.518 52.8495 989.797 52.5999 989.465 52.3887C989.188 52.1968 989.049 51.928 989.049 51.5825C989.049 51.2945 989.216 51.0066 989.631 50.8146C990.047 50.6226 990.518 50.5266 991.21 50.5266C991.82 50.5266 992.457 50.6034 993.067 50.7186C993.676 50.8338 994.23 51.0066 994.674 51.2369L994.812 51.3137V48.9717L994.729 48.9525C994.314 48.8373 993.759 48.7221 993.094 48.6261C992.43 48.5493 991.82 48.5109 991.321 48.5109C989.604 48.5109 988.191 48.7989 987.082 49.4324C985.974 50.0275 985.448 50.8338 985.448 51.7744C985.448 52.2736 985.558 52.7151 985.808 53.0798C986.057 53.4446 986.417 53.7901 986.916 54.0781C987.415 54.3468 988.135 54.654 989.133 54.9419C989.964 55.1915 990.601 55.3835 990.989 55.5371C991.377 55.6906 991.626 55.8634 991.82 55.9978C991.959 56.1514 992.042 56.3433 992.042 56.5929C992.042 57.3032 991.266 57.6487 989.687 57.6487C989.077 57.6487 988.44 57.5719 987.692 57.3992C986.944 57.2264 986.251 56.9768 985.669 56.6889L985.531 56.6121V59.0501L985.614 59.0693C986.14 59.2421 986.777 59.3573 987.553 59.4916C988.329 59.5876 989.022 59.6644 989.631 59.6644C991.488 59.6644 993.011 59.3765 994.092 58.743C995.2 58.1286 995.782 57.3416 995.782 56.3241C995.782 55.6138 995.505 54.9803 994.895 54.5004C994.092 54.0397 993.094 53.5598 991.654 53.1758ZM1005.29 48.5301C1002.76 48.5301 1000.74 49.0485 999.328 50.0659C997.915 51.0833 997.195 52.4847 997.195 54.2508C997.195 55.9018 997.915 57.2456 999.301 58.2246C1000.69 59.1845 1002.57 59.6836 1004.92 59.6836C1007.39 59.6836 1009.36 59.1653 1010.77 58.1286C1012.21 57.092 1012.9 55.7098 1012.9 54.0013C1012.9 52.312 1012.24 50.9682 1010.88 49.9891C1009.58 49.0101 1007.67 48.5301 1005.29 48.5301ZM1008.14 56.7081C1007.47 57.3032 1006.42 57.5911 1005.12 57.5911C1003.79 57.5911 1002.76 57.3032 1002.02 56.6697C1001.27 56.0746 1000.91 55.2107 1000.91 54.1165C1000.91 52.9838 1001.3 52.12 1002.02 51.5057C1002.76 50.8914 1003.79 50.5842 1005.09 50.5842C1006.34 50.5842 1007.36 50.8722 1008.08 51.4673C1008.8 52.0624 1009.19 52.9263 1009.19 54.0589C1009.19 55.2107 1008.83 56.113 1008.14 56.7081ZM1032.16 50.8146V48.7605H1028.53V45.6122L1028.42 45.6314L1024.98 46.3417L1024.9 46.3609V48.7605H1019.47V47.4167C1019.47 46.8024 1019.69 46.3225 1020.08 46.0153C1020.47 45.7082 1021.05 45.5546 1021.77 45.5546C1022.27 45.5546 1022.8 45.6314 1023.38 45.8042L1023.52 45.8618V43.6925L1023.43 43.6733C1022.93 43.5581 1022.27 43.4813 1021.41 43.4813C1020.33 43.4813 1019.39 43.6541 1018.53 43.9421C1017.67 44.2684 1017.03 44.7099 1016.56 45.305C1016.09 45.881 1015.84 46.5336 1015.84 47.2823V48.7605H1013.32V50.7954H1015.84V59.3957H1019.47V50.8146H1024.9V56.2857C1024.9 58.5318 1026.42 59.6644 1029.47 59.6644C1029.97 59.6644 1030.5 59.6068 1031 59.5492C1031.52 59.4724 1031.91 59.3765 1032.13 59.2997L1032.16 59.2805V57.2264L1032.02 57.3032C1031.8 57.3992 1031.61 57.4759 1031.27 57.5335C1031 57.5911 1030.75 57.6103 1030.55 57.6103C1029.83 57.6103 1029.33 57.4951 1028.97 57.2072C1028.64 56.9384 1028.47 56.4969 1028.47 55.8442V50.8146H1032.16Z" fill="white" fill-opacity="0.6"/>
<path d="M864.844 39.6227H881.827V51.3905H864.844V39.6227Z" fill="white" fill-opacity="0.6"/>
<path d="M883.601 39.6227H900.584V51.3905H883.601V39.6227Z" fill="white" fill-opacity="0.6"/>
<path d="M864.844 52.619H881.827V64.3868H864.844V52.619Z" fill="white" fill-opacity="0.6"/>
<path d="M883.601 52.619H900.584V64.3868H883.601V52.619Z" fill="white" fill-opacity="0.6"/>
</g>
<defs>
<clipPath id="clip0_1_544">
<rect width="167.344" height="38.6321" fill="white" transform="translate(635.625 32.6887)"/>
</clipPath>
<clipPath id="clip1_1_544">
<rect width="167.344" height="22.783" fill="white" transform="translate(1094.06 40.6133)"/>
</clipPath>
<clipPath id="clip2_1_544">
<rect width="167.344" height="32.6887" fill="white" transform="translate(177.188 35.6604)"/>
</clipPath>
<clipPath id="clip3_1_544">
<rect width="167.344" height="24.7642" fill="white" transform="translate(864.844 39.6227)"/>
</clipPath>
</defs>
</svg>
